HIERARCHY
ROOT Hips
{
	OFFSET 0.00000 0.00000 0.00000
	CHANNELS 6 Xposition Yposition Zposition Zrotation Yrotation Xrotation 
	JOINT LHipJoint
	{
		OFFSET 0 0 0
		CHANNELS 3 Zrotation Yrotation Xrotation
		JOINT LeftHip
		{
			OFFSET 1.30186 -1.90722 0.65024
			CHANNELS 3 Zrotation Yrotation Xrotation
			JOINT LeftKnee
			{
				OFFSET 2.56413 -7.04489 0.00000
				CHANNELS 3 Zrotation Yrotation Xrotation
				JOINT LeftAnkle
				{
					OFFSET 2.79321 -7.67428 0.00000
					CHANNELS 3 Zrotation Yrotation Xrotation
					JOINT LeftToe
					{
						OFFSET 0.15723 -0.43198 2.08537
						CHANNELS 3 Zrotation Yrotation Xrotation
						End Site
						{
							OFFSET 0.00000 -0.00000 1.07411
						}
					}
				}
			}
		}
	}
	JOINT RHipJoint
	{
		OFFSET 0 0 0
		CHANNELS 3 Zrotation Yrotation Xrotation
		JOINT RightHip
		{
			OFFSET -1.28627 -1.90723 0.65024
			CHANNELS 3 Zrotation Yrotation Xrotation
			JOINT RightKnee
			{
				OFFSET -2.56567 -7.04913 0.00000
				CHANNELS 3 Zrotation Yrotation Xrotation
				JOINT RightAnkle
				{
					OFFSET -2.75597 -7.57198 0.00000
					CHANNELS 3 Zrotation Yrotation Xrotation
					JOINT RightToe
					{
						OFFSET -0.17500 -0.48081 2.22901
						CHANNELS 3 Zrotation Yrotation Xrotation
						End Site
						{
							OFFSET -0.00000 -0.00000 1.14762
						}
					}
				}
			}
		}
	}
	JOINT lowerback
	{
		OFFSET 0 0 0
		CHANNELS 3 Zrotation Yrotation Xrotation
		JOINT Chest
		{
			OFFSET -0.04522 2.07467 -0.16566
			CHANNELS 3 Zrotation Yrotation Xrotation
			JOINT Chest2
			{
				OFFSET -0.01178 2.08825 -0.05393
				CHANNELS 3 Zrotation Yrotation Xrotation
				JOINT lowerneck
				{
					OFFSET 0 0 0
					CHANNELS 3 Zrotation Yrotation Xrotation
					JOINT Neck
					{
						OFFSET -0.05182 1.80489 0.16014
						CHANNELS 3 Zrotation Yrotation Xrotation
						JOINT Head
						{
							OFFSET 0.14739 1.78840 -0.33342
							CHANNELS 3 Zrotation Yrotation Xrotation
							End Site
							{
								OFFSET 0.04364 1.83899 -0.13460
							}
						}
					}
				}
				JOINT LeftCollar
				{
					OFFSET 0 0 0
					CHANNELS 3 Zrotation Yrotation Xrotation
					JOINT LeftShoulder
					{
						OFFSET 3.01264 1.29090 -0.06579
CHANNELS 3 Zrotation Xrotation Yrotation
						JOINT LeftElbow
						{
OFFSET 0 -5.556800 0.000000
CHANNELS 3 Zrotation Xrotation Yrotation
							JOINT LeftWrist
							{
OFFSET 0 -3.639790 -0.000000
CHANNELS 3 Zrotation Xrotation Yrotation
								JOINT lhand
								{
									OFFSET 0 0 0
CHANNELS 3 Zrotation Xrotation Yrotation
									JOINT LFingers
									{
OFFSET 0 -0.569420 -0.000000
CHANNELS 3 Zrotation Xrotation Yrotation
										End Site
										{
OFFSET 0 -0.459080 -0.000000
										}
									}
								}
								JOINT LThumb
								{
OFFSET 0 0.000000 0.000000
CHANNELS 3 Zrotation Xrotation Yrotation
									End Site
									{
OFFSET 0 -0.466090 0.466090
									}
								}
							}
						}
					}
				}
				JOINT RightCollar
				{
					OFFSET 0 0 0
					CHANNELS 3 Zrotation Yrotation Xrotation
					JOINT RightShoulder
					{
						OFFSET -3.15796 1.37283 -0.36748
CHANNELS 3 Zrotation Xrotation Yrotation
						JOINT RightElbow
						{
OFFSET 0 -5.343390 0.000000
CHANNELS 3 Zrotation Xrotation Yrotation
							JOINT RightWrist
							{
OFFSET 0 -3.651010 -0.000000
CHANNELS 3 Zrotation Xrotation Yrotation
								JOINT rhand
								{
									OFFSET 0 0 0
CHANNELS 3 Zrotation Xrotation Yrotation
									JOINT RFingers
									{
OFFSET 0 -0.694250 -0.000000
CHANNELS 3 Zrotation Xrotation Yrotation
										End Site
										{
OFFSET 0 -0.559720 -0.000000
										}
									}
								}
								JOINT RThumb
								{
OFFSET 0 0.000000 0.000000
CHANNELS 3 Zrotation Xrotation Yrotation
									End Site
									{
OFFSET 0 -0.568270 0.568270
									}
								}
							}
						}
					}
				}
			}
		}
	}
}
MOTION
Frames: 13
Frame Time: 0.008333333333333333
9.360400 17.583500 -26.240900 -2.263400 -14.646700 8.250700 0.000000 0.000000 0.000000 -11.335600 -14.835200 -35.677900 2.679500 10.157200 29.487400 -0.037100 6.980800 -9.017800 0.570000 -4.835100 -13.438900 0.000000 0.000000 0.000000 23.471200 -0.353900 20.928200 -0.055200 -1.516600 4.171500 0.034400 3.743400 3.268700 -0.439400 4.253400 -11.790800 -0.156100 1.250600 3.485500 0.365700 1.656200 2.130800 0.408400 0.822200 0.215700 -4.503700 -3.557900 -13.551900 3.420900 -4.254600 4.665100 1.467900 -2.011900 3.743400 0.000000 -0.000000 0.000000 -0.444000 9.940500 -11.013800 11.280500 -18.716900 1.864900 22.477500 13.395600 -14.568400 0.000000 0.000000 0.000000 -7.125000 0.000000 0.000000 -4.734600 45.635100 0.074400 0.000000 -0.000000 0.000000 -4.598000 4.938600 11.140800 -17.800000 -27.900300 -4.455200 -25.939600 -13.490800 -35.161000 0.000000 0.000000 0.000000 7.125000 0.000000 -0.000000 3.866900 -8.015200 4.377700
9.359127 17.588398 -26.169248 -2.093100 -14.703158 8.197404 0.000000 0.000000 0.000000 -11.603660 -14.891774 -35.452106 2.687753 10.171546 29.534101 -0.043000 6.978023 -8.847616 0.513041 -4.578956 -12.713583 0.000000 0.000000 0.000000 23.267234 -0.027993 20.209246 -0.119834 -2.103548 5.796907 0.036752 3.810656 3.222886 -0.305235 3.365496 -9.314742 -0.379156 1.238722 3.398190 0.312096 1.634758 2.142061 0.481209 0.809551 0.271695 -4.678666 -3.551228 -13.722046 3.637400 -4.229340 4.822905 1.560956 -1.989301 3.826660 0.000000 0.000000 0.000000 -0.424332 9.818174 -10.407492 11.179192 -18.562103 1.832737 21.818668 14.622638 -15.547123 0.000000 0.000000 0.000000 -7.125000 0.000000 0.000000 -5.571522 46.576917 0.248749 0.000000 0.000000 0.000000 -4.573357 4.985186 10.848753 -17.876473 -27.998485 -4.491142 -25.957610 -13.558827 -35.396165 0.000000 0.000000 0.000000 7.125000 0.000000 0.000000 3.903690 -8.259697 4.433772
9.357855 17.593295 -26.097595 -1.922800 -14.759616 8.144108 0.000000 0.000000 0.000000 -11.871721 -14.948348 -35.226312 2.696006 10.185892 29.580803 -0.048901 6.975247 -8.677432 0.456081 -4.322812 -11.988266 0.000000 0.000000 0.000000 23.063267 0.297913 19.490292 -0.184467 -2.690496 7.422314 0.039105 3.877912 3.177071 -0.171070 2.477592 -6.838684 -0.602212 1.226844 3.310881 0.258491 1.613317 2.153322 0.554019 0.796902 0.327691 -4.853632 -3.544557 -13.892191 3.853900 -4.204081 4.980710 1.654011 -1.966703 3.909921 0.000000 0.000000 0.000000 -0.404664 9.695848 -9.801185 11.077883 -18.407306 1.800575 21.159836 15.849676 -16.525845 0.000000 0.000000 0.000000 -7.125000 0.000000 0.000000 -6.408444 47.518733 0.423098 0.000000 0.000000 0.000000 -4.548715 5.031771 10.556706 -17.952946 -28.096669 -4.527084 -25.975619 -13.626855 -35.631330 0.000000 0.000000 0.000000 7.125000 0.000000 0.000000 3.940481 -8.504195 4.489845
9.355797 17.598177 -26.027465 -1.774392 -14.801904 8.076532 0.000000 0.000000 0.000000 -12.136532 -14.930145 -35.017216 2.708181 10.206923 29.649427 -0.050046 6.900095 -8.525169 0.400644 -4.054538 -11.231438 0.000000 0.000000 0.000000 22.887673 0.572238 18.862828 -0.256430 -3.227526 8.915729 0.041034 3.957581 3.211965 -0.082994 1.840381 -5.065132 -0.807942 1.217477 3.257876 0.205923 1.595704 2.172240 0.617381 0.786214 0.372858 -5.022525 -3.547003 -14.100062 4.079313 -4.191815 5.163875 1.747522 -1.949079 4.007744 0.000000 0.000000 0.000000 -0.345749 9.573146 -9.301228 10.967803 -18.238637 1.765995 20.549291 16.811443 -17.182928 0.000000 0.000000 0.000000 -7.125000 0.000000 0.000000 -7.134355 48.124708 0.554057 0.000000 0.000000 0.000000 -4.508379 5.068565 10.263089 -18.030517 -28.196047 -4.563669 -25.976618 -13.636740 -35.727535 0.000000 0.000000 0.000000 7.125000 0.000000 0.000000 3.958895 -8.602592 4.516509
9.352597 17.603036 -25.959553 -1.657889 -14.823538 7.988143 0.000000 0.000000 0.000000 -12.396610 -14.802960 -34.832454 2.726075 10.237697 29.750003 -0.044261 6.719460 -8.399025 0.347425 -3.768584 -10.428684 0.000000 0.000000 0.000000 22.753431 0.771384 18.368704 -0.339073 -3.691801 10.216772 0.042345 4.055342 3.364487 -0.062093 1.568542 -4.315442 -0.988423 1.211770 3.254868 0.154864 1.583672 2.202321 0.666975 0.778386 0.402244 -5.182567 -3.562737 -14.362916 4.317717 -4.198486 5.383999 1.841696 -1.938705 4.126792 0.000000 0.000000 0.000000 -0.229632 9.449894 -8.956270 10.844937 -18.049749 1.727894 20.009121 17.386590 -17.371237 0.000000 0.000000 0.000000 -7.125000 0.000000 0.000000 -7.698473 48.241211 0.621775 0.000000 0.000000 0.000000 -4.445173 5.091086 9.967185 -18.109690 -28.297162 -4.601192 -25.952823 -13.561887 -35.621213 0.000000 0.000000 0.000000 7.125000 0.000000 0.000000 3.950526 -8.488056 4.500312
9.349396 17.607895 -25.891642 -1.541387 -14.845173 7.899753 0.000000 0.000000 0.000000 -12.656687 -14.675775 -34.647693 2.743969 10.268471 29.850578 -0.038477 6.538825 -8.272881 0.294207 -3.482630 -9.625930 0.000000 0.000000 0.000000 22.619189 0.970530 17.874580 -0.421716 -4.156076 11.517815 0.043656 4.153102 3.517009 -0.041191 1.296702 -3.565753 -1.168904 1.206062 3.251860 0.103805 1.571640 2.232401 0.716568 0.770557 0.431630 -5.342609 -3.578471 -14.625770 4.556122 -4.205158 5.604124 1.935870 -1.928331 4.245840 0.000000 0.000000 0.000000 -0.113515 9.326643 -8.611313 10.722071 -17.860861 1.689792 19.468951 17.961738 -17.559547 0.000000 0.000000 0.000000 -7.125000 0.000000 0.000000 -8.262591 48.357713 0.689494 0.000000 0.000000 0.000000 -4.381966 5.113608 9.671282 -18.188862 -28.398278 -4.638715 -25.929029 -13.487034 -35.514891 0.000000 0.000000 0.000000 7.125000 0.000000 0.000000 3.942158 -8.373521 4.484115
9.346917 17.611750 -25.824923 -1.543616 -14.846218 7.895038 0.000000 0.000000 0.000000 -12.748349 -14.627431 -34.517385 2.765096 10.304519 29.968730 -0.034167 6.461731 -8.276235 0.262801 -3.291648 -9.092277 0.000000 0.000000 0.000000 22.591313 1.113746 17.416738 -0.502916 -4.525724 12.564194 0.037905 4.192266 3.981629 -0.045774 1.368504 -3.763502 -1.220264 1.201861 3.205351 0.087678 1.565414 2.225006 0.729943 0.766997 0.449246 -5.428298 -3.596716 -14.712645 4.703194 -4.225451 5.680785 1.992004 -1.930355 4.289782 0.000000 0.000000 0.000000 -0.038858 9.133402 -8.131366 10.520490 -17.548439 1.629313 19.269598 18.379612 -17.187340 0.000000 0.000000 0.000000 -7.125000 0.000000 0.000000 -8.351248 47.944803 0.611082 0.000000 0.000000 0.000000 -4.346284 5.206213 9.448412 -18.314642 -28.557645 -4.698930 -25.960003 -13.544471 -35.211154 0.000000 0.000000 0.000000 7.125000 0.000000 0.000000 3.866185 -8.071110 4.380603
9.344603 17.615375 -25.758476 -1.573002 -14.842555 7.909461 0.000000 0.000000 0.000000 -12.801491 -14.597119 -34.399533 2.786962 10.341772 30.090901 -0.030195 6.408319 -8.309207 0.236384 -3.122390 -8.620173 0.000000 0.000000 0.000000 22.587765 1.244171 16.967194 -0.583785 -4.873728 13.552327 0.030540 4.218027 4.517634 -0.056186 1.518905 -4.177952 -1.242092 1.198005 3.148893 0.079541 1.560516 2.209041 0.735033 0.764413 0.464171 -5.496981 -3.615536 -14.759269 4.829376 -4.248860 5.724633 2.039438 -1.935214 4.316545 0.000000 0.000000 0.000000 0.026315 8.924152 -7.620543 10.300905 -17.207762 1.563715 19.148198 18.761514 -16.686930 0.000000 0.000000 0.000000 -7.125000 0.000000 0.000000 -8.331156 47.410804 0.499245 0.000000 0.000000 0.000000 -4.316898 5.314849 9.242248 -18.451083 -28.730336 -4.764335 -26.003504 -13.632166 -34.862263 0.000000 0.000000 0.000000 7.125000 0.000000 0.000000 3.774749 -7.725729 4.257120
9.342298 17.618898 -25.692337 -1.588544 -14.849006 7.920632 0.000000 0.000000 0.000000 -12.870494 -14.559681 -34.282387 2.810675 10.381988 30.222932 -0.025976 6.363098 -8.361626 0.213620 -2.974996 -8.209167 0.000000 0.000000 0.000000 22.569215 1.386438 16.515913 -0.667055 -5.217347 14.530889 0.020986 4.235273 5.088598 -0.067510 1.672115 -4.600363 -1.283297 1.194702 3.109004 0.069326 1.555568 2.180483 0.748297 0.761855 0.456507 -5.538069 -3.630915 -14.781960 4.922174 -4.270386 5.752644 2.072620 -1.940856 4.333100 0.000000 0.000000 0.000000 0.078914 8.726294 -7.038857 10.080145 -16.864395 1.498509 19.078887 19.254560 -16.271977 0.000000 0.000000 0.000000 -7.125000 0.000000 0.000000 -8.285513 46.972240 0.406157 0.000000 0.000000 0.000000 -4.287453 5.436971 9.025040 -18.586212 -28.901009 -4.829306 -26.050955 -13.746477 -34.562618 0.000000 0.000000 0.000000 7.125000 0.000000 0.000000 3.690788 -7.431585 4.145234
9.340022 17.622060 -25.627279 -1.555224 -14.891157 7.920323 0.000000 0.000000 0.000000 -12.995481 -14.497092 -34.167736 2.840910 10.432661 30.389761 -0.020886 6.346786 -8.482679 0.203748 -2.904770 -8.013801 0.000000 0.000000 0.000000 22.497717 1.570506 16.058502 -0.758800 -5.545491 15.475675 0.003709 4.222470 5.782948 -0.082049 1.835242 -5.050871 -1.392897 1.193352 3.127592 0.051779 1.550439 2.107480 0.790410 0.759387 0.369120 -5.481765 -3.634155 -14.720180 4.897146 -4.285272 5.724762 2.055497 -1.949263 4.313625 0.000000 0.000000 0.000000 0.087128 8.568643 -6.207065 9.855238 -16.511532 1.434685 19.193423 20.139880 -16.158636 0.000000 0.000000 0.000000 -7.125000 0.000000 0.000000 -8.149690 46.870507 0.379239 0.000000 0.000000 0.000000 -4.257797 5.606692 8.768858 -18.716714 -29.064560 -4.892744 -26.112349 -13.954724 -34.436783 0.000000 0.000000 0.000000 7.125000 0.000000 0.000000 3.633212 -7.318283 4.074276
9.337747 17.625223 -25.562221 -1.521905 -14.933308 7.920015 0.000000 0.000000 0.000000 -13.120468 -14.434502 -34.053084 2.871144 10.483335 30.556590 -0.015795 6.330473 -8.603733 0.193875 -2.834545 -7.818434 0.000000 0.000000 0.000000 22.426218 1.754573 15.601091 -0.850544 -5.873634 16.420461 -0.013568 4.209667 6.477297 -0.096587 1.998369 -5.501378 -1.502497 1.192003 3.146180 0.034233 1.545310 2.034478 0.832522 0.756919 0.281734 -5.425462 -3.637394 -14.658400 4.872118 -4.300158 5.696880 2.038375 -1.957670 4.294150 0.000000 0.000000 0.000000 0.095342 8.410992 -5.375272 9.630332 -16.158669 1.370861 19.307959 21.025200 -16.045296 0.000000 0.000000 0.000000 -7.125000 0.000000 0.000000 -8.013866 46.768774 0.352321 0.000000 0.000000 0.000000 -4.228141 5.776414 8.512675 -18.847215 -29.228111 -4.956182 -26.173743 -14.162971 -34.310948 0.000000 0.000000 0.000000 7.125000 0.000000 0.000000 3.575635 -7.204982 4.003317
9.336416 17.629498 -25.495371 -1.424267 -15.011624 7.869089 0.000000 0.000000 0.000000 -13.345648 -14.315824 -33.904470 2.906655 10.542045 30.750798 -0.006226 6.249673 -8.747492 0.191967 -2.821230 -7.781405 0.000000 0.000000 0.000000 22.241504 1.917701 15.167428 -0.950349 -6.196742 17.360043 -0.042077 4.132303 7.271719 -0.085588 1.849491 -5.090891 -1.661237 1.198060 3.178372 -0.008102 1.548169 1.978445 0.876425 0.758179 0.203328 -5.338270 -3.627997 -14.624967 4.814386 -4.300544 5.709739 2.006825 -1.959662 4.289563 0.000000 0.000000 0.000000 0.138559 8.305702 -4.750715 9.445100 -15.866517 1.319625 19.477542 21.757580 -16.098839 0.000000 0.000000 0.000000 -7.125000 0.000000 0.000000 -7.868433 46.847554 0.360068 0.000000 0.000000 0.000000 -4.179603 5.907525 8.195709 -18.952977 -29.360023 -5.007904 -26.233758 -14.324135 -34.380245 0.000000 0.000000 0.000000 7.125000 0.000000 0.000000 3.556475 -7.291484 3.986365
9.335645 17.634435 -25.427460 -1.288482 -15.111389 7.788143 0.000000 0.000000 0.000000 -13.630252 -14.163881 -33.735713 2.945297 10.605522 30.961243 0.005998 6.130625 -8.904719 0.194782 -2.841669 -7.838288 0.000000 0.000000 0.000000 21.989641 2.068410 14.747848 -1.054936 -6.516864 18.296538 -0.077247 4.016649 8.125493 -0.059441 1.515563 -4.169745 -1.849122 1.208511 3.218633 -0.065139 1.555766 1.932477 0.921391 0.761649 0.130248 -5.232758 -3.611106 -14.608346 4.737257 -4.292330 5.746760 1.966718 -1.957850 4.293805 0.000000 0.000000 0.000000 0.202538 8.231465 -4.249071 9.283400 -15.610373 1.275855 19.679773 22.399251 -16.251360 0.000000 0.000000 0.000000 -7.125000 0.000000 0.000000 -7.717299 47.033395 0.388374 0.000000 0.000000 0.000000 -4.119867 6.015736 7.842692 -19.044066 -29.473171 -5.052677 -26.292954 -14.457375 -34.565277 0.000000 0.000000 0.000000 7.125000 0.000000 0.000000 3.560101 -7.496492 4.001444
